<svg class="main-svg" xmlns="http://www.w3.org/2000/svg" xmlns:xlink="http://www.w3.org/1999/xlink" width="700" height="500" style="" viewBox="0 0 700 500"><rect x="0" y="0" width="700" height="500" style="fill: rgb(255, 255, 255); fill-opacity: 1;"/><defs id="defs-c2c93a"><g class="clips"><clipPath id="clipc2c93axyplot" class="plotclip"><rect width="625" height="399"/></clipPath><clipPath class="axesclip" id="clipc2c93ax"><rect x="65" y="0" width="625" height="500"/></clipPath><clipPath class="axesclip" id="clipc2c93ay"><rect x="0" y="50" width="700" height="399"/></clipPath><clipPath class="axesclip" id="clipc2c93axy"><rect x="65" y="50" width="625" height="399"/></clipPath></g><g class="gradients"/><g class="patterns"/></defs><g class="bglayer"/><g class="layer-below"><g class="imagelayer"/><g class="shapelayer"/></g><g class="cartesianlayer"><g class="subplot xy"><g class="layer-subplot"><g class="shapelayer"/><g class="imagelayer"/></g><g class="minor-gridlayer"><g class="x"/><g class="y"/></g><g class="gridlayer"><g class="x"/><g class="y"><path class="ygrid crisp" transform="translate(0,375.44)" d="M65,0h625" style="stroke: rgb(235, 240, 248); stroke-opacity: 1; stroke-width: 1px;"/><path class="ygrid crisp" transform="translate(0,321.78)" d="M65,0h625" style="stroke: rgb(235, 240, 248); stroke-opacity: 1; stroke-width: 1px;"/><path class="ygrid crisp" transform="translate(0,268.12)" d="M65,0h625" style="stroke: rgb(235, 240, 248); stroke-opacity: 1; stroke-width: 1px;"/><path class="ygrid crisp" transform="translate(0,214.47)" d="M65,0h625" style="stroke: rgb(235, 240, 248); stroke-opacity: 1; stroke-width: 1px;"/><path class="ygrid crisp" transform="translate(0,160.81)" d="M65,0h625" style="stroke: rgb(235, 240, 248); stroke-opacity: 1; stroke-width: 1px;"/><path class="ygrid crisp" transform="translate(0,107.16)" d="M65,0h625" style="stroke: rgb(235, 240, 248); stroke-opacity: 1; stroke-width: 1px;"/><path class="ygrid crisp" transform="translate(0,53.5)" d="M65,0h625" style="stroke: rgb(235, 240, 248); stroke-opacity: 1; stroke-width: 1px;"/></g></g><g class="zerolinelayer"><path class="yzl zl crisp" transform="translate(0,429.09)" d="M65,0h625" style="stroke: rgb(235, 240, 248); stroke-opacity: 1; stroke-width: 2px;"/></g><path class="xlines-below"/><path class="ylines-below"/><g class="overlines-below"/><g class="xaxislayer-below"/><g class="yaxislayer-below"/><g class="overaxes-below"/><g class="plot" transform="translate(65,50)" clip-path="url(#clipc2c93axyplot)"><g class="barlayer mlayer"><g class="trace bars" shape-rendering="crispEdges" style="opacity: 0.7;"><g class="points"><g class="point"><path d="M0,379.09V229.69H21.55V379.09Z" style="vector-effect: none; opacity: 1; stroke-width: 0px; fill: rgb(245, 133, 24); fill-opacity: 1;"/></g><g class="point"><path d="M21.55,379.09V19.95H43.1V379.09Z" style="vector-effect: none; opacity: 1; stroke-width: 0px; fill: rgb(245, 133, 24); fill-opacity: 1;"/></g><g class="point"><path d="M43.1,379.09V60.17H64.66V379.09Z" style="vector-effect: none; opacity: 1; stroke-width: 0px; fill: rgb(245, 133, 24); fill-opacity: 1;"/></g><g class="point"><path d="M64.66,379.09V117.64H86.21V379.09Z" style="vector-effect: none; opacity: 1; stroke-width: 0px; fill: rgb(245, 133, 24); fill-opacity: 1;"/></g><g class="point"><path d="M86.21,379.09V232.56H107.76V379.09Z" style="vector-effect: none; opacity: 1; stroke-width: 0px; fill: rgb(245, 133, 24); fill-opacity: 1;"/></g><g class="point"><path d="M107.76,379.09V310.14H129.31V379.09Z" style="vector-effect: none; opacity: 1; stroke-width: 0px; fill: rgb(245, 133, 24); fill-opacity: 1;"/></g><g class="point"><path d="M129.31,379.09V341.74H150.86V379.09Z" style="vector-effect: none; opacity: 1; stroke-width: 0px; fill: rgb(245, 133, 24); fill-opacity: 1;"/></g><g class="point"><path d="M150.86,379.09V356.11H172.41V379.09Z" style="vector-effect: none; opacity: 1; stroke-width: 0px; fill: rgb(245, 133, 24); fill-opacity: 1;"/></g><g class="point"><path d="M172.41,379.09V364.73H193.97V379.09Z" style="vector-effect: none; opacity: 1; stroke-width: 0px; fill: rgb(245, 133, 24); fill-opacity: 1;"/></g><g class="point"><path d="M193.97,379.09V364.73H215.52V379.09Z" style="vector-effect: none; opacity: 1; stroke-width: 0px; fill: rgb(245, 133, 24); fill-opacity: 1;"/></g><g class="point"><path d="M215.52,379.09V370.47H237.07V379.09Z" style="vector-effect: none; opacity: 1; stroke-width: 0px; fill: rgb(245, 133, 24); fill-opacity: 1;"/></g><g class="point"><path d="M0,0Z" style="vector-effect: none; opacity: 1; stroke-width: 0px; fill: rgb(245, 133, 24); fill-opacity: 1;"/></g><g class="point"><path d="M258.62,379.09V376.22H280.17V379.09Z" style="vector-effect: none; opacity: 1; stroke-width: 0px; fill: rgb(245, 133, 24); fill-opacity: 1;"/></g><g class="point"><path d="M280.17,379.09V373.34H301.72V379.09Z" style="vector-effect: none; opacity: 1; stroke-width: 0px; fill: rgb(245, 133, 24); fill-opacity: 1;"/></g><g class="point"><path d="M0,0Z" style="vector-effect: none; opacity: 1; stroke-width: 0px; fill: rgb(245, 133, 24); fill-opacity: 1;"/></g><g class="point"><path d="M323.28,379.09V376.22H344.83V379.09Z" style="vector-effect: none; opacity: 1; stroke-width: 0px; fill: rgb(245, 133, 24); fill-opacity: 1;"/></g><g class="point"><path d="M344.83,379.09V376.22H366.38V379.09Z" style="vector-effect: none; opacity: 1; stroke-width: 0px; fill: rgb(245, 133, 24); fill-opacity: 1;"/></g><g class="point"><path d="M0,0Z" style="vector-effect: none; opacity: 1; stroke-width: 0px; fill: rgb(245, 133, 24); fill-opacity: 1;"/></g><g class="point"><path d="M0,0Z" style="vector-effect: none; opacity: 1; stroke-width: 0px; fill: rgb(245, 133, 24); fill-opacity: 1;"/></g><g class="point"><path d="M0,0Z" style="vector-effect: none; opacity: 1; stroke-width: 0px; fill: rgb(245, 133, 24); fill-opacity: 1;"/></g><g class="point"><path d="M0,0Z" style="vector-effect: none; opacity: 1; stroke-width: 0px; fill: rgb(245, 133, 24); fill-opacity: 1;"/></g><g class="point"><path d="M452.59,379.09V376.22H474.14V379.09Z" style="vector-effect: none; opacity: 1; stroke-width: 0px; fill: rgb(245, 133, 24); fill-opacity: 1;"/></g><g class="point"><path d="M474.14,379.09V376.22H495.69V379.09Z" style="vector-effect: none; opacity: 1; stroke-width: 0px; fill: rgb(245, 133, 24); fill-opacity: 1;"/></g><g class="point"><path d="M495.69,379.09V376.22H517.24V379.09Z" style="vector-effect: none; opacity: 1; stroke-width: 0px; fill: rgb(245, 133, 24); fill-opacity: 1;"/></g><g class="point"><path d="M517.24,379.09V376.22H538.79V379.09Z" style="vector-effect: none; opacity: 1; stroke-width: 0px; fill: rgb(245, 133, 24); fill-opacity: 1;"/></g><g class="point"><path d="M0,0Z" style="vector-effect: none; opacity: 1; stroke-width: 0px; fill: rgb(245, 133, 24); fill-opacity: 1;"/></g><g class="point"><path d="M0,0Z" style="vector-effect: none; opacity: 1; stroke-width: 0px; fill: rgb(245, 133, 24); fill-opacity: 1;"/></g><g class="point"><path d="M0,0Z" style="vector-effect: none; opacity: 1; stroke-width: 0px; fill: rgb(245, 133, 24); fill-opacity: 1;"/></g><g class="point"><path d="M603.45,379.09V376.22H625V379.09Z" style="vector-effect: none; opacity: 1; stroke-width: 0px; fill: rgb(245, 133, 24); fill-opacity: 1;"/></g></g></g></g><g class="scatterlayer mlayer"><g class="trace scatter tracec62237" style="stroke-miterlimit: 2; opacity: 1;"><g class="fills"/><g class="errorbars"/><g class="lines"><path class="js-line" d="M0,287.41L7.4,245.84L8.63,238.27L29.6,108.33L30.83,102.24L35.77,81.58L37,77.43L40.7,67.64L41.94,65.28L45.64,60.87L46.87,60.28L49.34,60.35L50.57,60.99L53.04,63.39L54.27,65.11L57.97,72.18L59.2,75.1L64.14,89.14L65.37,93.15L72.77,120.27L74,125.17L90.04,192.74L91.27,197.93L104.84,251.66L106.07,256.14L115.94,288.68L117.17,292.29L124.57,311.52L125.81,314.3L131.97,326.34L133.21,328.39L139.37,336.97L140.61,338.38L146.77,344.25L148.01,345.22L156.64,350.68L157.87,351.33L170.21,356.76L171.44,357.22L186.24,362L187.48,362.33L233.11,373.45L234.34,373.73L247.91,375.93L249.14,376.04L262.71,376.41L263.95,376.38L296.01,375.88L297.25,375.95L326.85,377.02L328.08,376.99L353.98,376.82L355.22,376.88L405.79,379.05L407.02,379.05L440.32,378.35L441.55,378.28L488.42,376.16L489.66,376.18L545.16,377.81L546.39,377.86L584.63,378.72L585.86,378.7L615.46,377.79" style="vector-effect: none; fill: none; stroke: rgb(245, 133, 24); stroke-opacity: 1; stroke-width: 2px; opacity: 1;"/></g><g class="points"/><g class="text"/></g></g></g><g class="overplot"/><path class="xlines-above crisp" d="M0,0" style="fill: none;"/><path class="ylines-above crisp" d="M0,0" style="fill: none;"/><g class="overlines-above"/><g class="xaxislayer-above"><g class="xtick"><text text-anchor="middle" x="0" y="462" transform="translate(206.61,0)" style="font-family: 'Open Sans', verdana, arial, sans-serif; font-size: 12px; fill: rgb(42, 63, 95); fill-opacity: 1; white-space: pre; opacity: 1;">5k</text></g><g class="xtick"><text text-anchor="middle" x="0" y="462" style="font-family: 'Open Sans', verdana, arial, sans-serif; font-size: 12px; fill: rgb(42, 63, 95); fill-opacity: 1; white-space: pre; opacity: 1;" transform="translate(350.29,0)">10k</text></g><g class="xtick"><text text-anchor="middle" x="0" y="462" style="font-family: 'Open Sans', verdana, arial, sans-serif; font-size: 12px; fill: rgb(42, 63, 95); fill-opacity: 1; white-space: pre; opacity: 1;" transform="translate(493.97,0)">15k</text></g><g class="xtick"><text text-anchor="middle" x="0" y="462" style="font-family: 'Open Sans', verdana, arial, sans-serif; font-size: 12px; fill: rgb(42, 63, 95); fill-opacity: 1; white-space: pre; opacity: 1;" transform="translate(637.64,0)">20k</text></g></g><g class="yaxislayer-above"><g class="ytick"><text text-anchor="end" x="65" y="4.199999999999999" transform="translate(0,429.09)" style="font-family: 'Open Sans', verdana, arial, sans-serif; font-size: 12px; fill: rgb(42, 63, 95); fill-opacity: 1; white-space: pre; opacity: 1;">0</text></g><g class="ytick"><text text-anchor="end" x="65" y="4.199999999999999" style="font-family: 'Open Sans', verdana, arial, sans-serif; font-size: 12px; fill: rgb(42, 63, 95); fill-opacity: 1; white-space: pre; opacity: 1;" transform="translate(0,375.44)">50μ</text></g><g class="ytick"><text text-anchor="end" x="65" y="4.199999999999999" style="font-family: 'Open Sans', verdana, arial, sans-serif; font-size: 12px; fill: rgb(42, 63, 95); fill-opacity: 1; white-space: pre; opacity: 1;" transform="translate(0,321.78)">100μ</text></g><g class="ytick"><text text-anchor="end" x="65" y="4.199999999999999" style="font-family: 'Open Sans', verdana, arial, sans-serif; font-size: 12px; fill: rgb(42, 63, 95); fill-opacity: 1; white-space: pre; opacity: 1;" transform="translate(0,268.12)">150μ</text></g><g class="ytick"><text text-anchor="end" x="65" y="4.199999999999999" style="font-family: 'Open Sans', verdana, arial, sans-serif; font-size: 12px; fill: rgb(42, 63, 95); fill-opacity: 1; white-space: pre; opacity: 1;" transform="translate(0,214.47)">200μ</text></g><g class="ytick"><text text-anchor="end" x="65" y="4.199999999999999" style="font-family: 'Open Sans', verdana, arial, sans-serif; font-size: 12px; fill: rgb(42, 63, 95); fill-opacity: 1; white-space: pre; opacity: 1;" transform="translate(0,160.81)">250μ</text></g><g class="ytick"><text text-anchor="end" x="65" y="4.199999999999999" style="font-family: 'Open Sans', verdana, arial, sans-serif; font-size: 12px; fill: rgb(42, 63, 95); fill-opacity: 1; white-space: pre; opacity: 1;" transform="translate(0,107.16)">300μ</text></g><g class="ytick"><text text-anchor="end" x="65" y="4.199999999999999" style="font-family: 'Open Sans', verdana, arial, sans-serif; font-size: 12px; fill: rgb(42, 63, 95); fill-opacity: 1; white-space: pre; opacity: 1;" transform="translate(0,53.5)">350μ</text></g></g><g class="overaxes-above"/></g></g><g class="polarlayer"/><g class="smithlayer"/><g class="ternarylayer"/><g class="geolayer"/><g class="funnelarealayer"/><g class="pielayer"/><g class="iciclelayer"/><g class="treemaplayer"/><g class="sunburstlayer"/><g class="glimages"/><defs id="topdefs-c2c93a"><g class="clips"/></defs><g class="layer-above"><g class="imagelayer"/><g class="shapelayer"/></g><g class="infolayer"><g class="g-gtitle"><text class="gtitle" x="35" y="25" text-anchor="start" dy="0em" style="font-family: 'Open Sans', verdana, arial, sans-serif; font-size: 17px; fill: rgb(42, 63, 95); opacity: 1; font-weight: normal; white-space: pre;">Distribución de <tspan style="font-weight:bold">total_rooms</tspan></text></g><g class="g-xtitle"><text class="xtitle" x="377.5" y="489.3" text-anchor="middle" style="font-family: 'Open Sans', verdana, arial, sans-serif; font-size: 14px; fill: rgb(42, 63, 95); opacity: 1; font-weight: normal; white-space: pre;">Item</text></g><g class="g-ytitle" transform="translate(4.8623046875,0)"><text class="ytitle" transform="rotate(-90,9.137500000000003,249.5)" x="9.137500000000003" y="249.5" text-anchor="middle" style="font-family: 'Open Sans', verdana, arial, sans-serif; font-size: 14px; fill: rgb(42, 63, 95); opacity: 1; font-weight: normal; white-space: pre;">Frecuencia relativa</text></g></g></svg>